<?xml version="1.0" encoding="utf-8"?>
<!-- Generator: Adobe Illustrator 26.0.3, SVG Export Plug-In . SVG Version: 6.00 Build 0)  -->
<svg version="1.1" id="Layer_5" xmlns="http://www.w3.org/2000/svg" xmlns:xlink="http://www.w3.org/1999/xlink" x="0px" y="0px"
	 viewBox="0 0 512 512" style="enable-background:new 0 0 512 512;" xml:space="preserve">
<style type="text/css">
	.st0{fill:#2A6E94;}
</style>
<g>
	<path class="st0" d="M432,24c-30.8,0-57.8,19.4-67.9,48h-70.3c11.3-10.7,18.4-26,18.4-43c0-5.6-2.2-10.9-6.1-14.8
		c-6.2-6.2-16.2-7.9-24.2-3.9l-18.6,9.3c-5.8,2.9-12.4,4.5-18.9,4.5h-32.9c-8.6,0-17.2,2-24.9,5.8l-35.2,17.5L48,12.9v214.2
		L150.4,193l15.8,11.8c9.6,7.2,21.6,11.2,33.6,11.2h88c13.2,0,24-10.8,24-24c0-3.2-0.6-6.2-1.8-8.9c10.2-2.8,17.8-12,17.8-23.1
		c0-6.2-2.4-11.7-6.2-16c3.8-4.3,6.2-9.8,6.2-16c0-2.8-0.6-5.5-1.5-8H364c6.2,17.5,18.8,31.6,34.8,39.9l-34.4,89.5
		c-4-0.9-8.1-1.4-12.4-1.4c-23.9,0-44.3,15.1-52.3,36.2l-51.8-11.5c0-0.2,0.1-0.4,0.1-0.7c0-22.1-17.9-40-40-40s-40,17.9-40,40
		c0,1.6,0.3,3.2,0.5,4.7L114,294.9c-9.2-18.3-28.1-30.9-50-30.9c-30.9,0-56,25.1-56,56s25.1,56,56,56s56-25.1,56-56
		c0-3.4-0.4-6.7-0.9-9.9l54.5-18.2c6.9,11.9,19.7,20.1,34.5,20.1c16.2,0,30.2-9.8,36.4-23.7l51.8,11.5c-0.1,1.4-0.2,2.8-0.2,4.2
		c0,30.9,25.1,56,56,56s56-25.1,56-56c0-20.9-11.6-39.2-28.6-48.8l34.4-89.5c5.8,1.5,12,2.3,18.2,2.3c39.7,0,72-32.3,72-72
		S471.7,24,432,24L432,24z M64,360c-22.1,0-40-17.9-40-40s17.9-40,40-40s40,17.9,40,40S86.1,360,64,360z M208,296
		c-13.2,0-24-10.8-24-24s10.8-24,24-24s24,10.8,24,24S221.2,296,208,296z M392,304c0,22.1-17.9,40-40,40s-40-17.9-40-40
		s17.9-40,40-40S392,281.9,392,304z M144,178.2l-80,26.7V35.1l80,26.7V178.2z M311.8,128c0,4.4-3.6,8-8,8H264v16h39.8
		c4.4,0,8,3.6,8,8s-3.6,8-8,8h-16H264v16h23.8c4.4,0,8,3.6,8,8s-3.6,8-8,8h-88c-8.6,0-17.1-2.8-24-8L160,180.1V60.9l33.6-16.7
		c5.5-2.7,11.7-4.2,17.8-4.2h32.9c9,0,18-2.1,26.1-6.2l18.6-9.3c1.9-0.9,4.3-0.6,5.7,0.9c0.9,0.9,1.4,2.2,1.4,4.3
		c0,23.3-19,42.3-42.3,42.3h-13.7h-16v16h16h13.7h146c4.4,0,8,3.6,8,8s-3.6,8-8,8h-96H264v16h39.8C308.2,120,311.8,123.6,311.8,128z
		 M416,78.3c4.4-3.9,10-6.3,16-6.3c13.2,0,24,10.8,24,24s-10.8,24-24,24c-6.1,0-11.7-2.4-16-6.3c4.8-4.4,7.9-10.6,7.9-17.7
		S420.8,82.7,416,78.3z M432,152c-21.9,0-41.4-12.8-50.5-32h18.4c0.1,0,0.1,0,0.2,0c7.5,10,19.3,16,32,16c22.1,0,40-17.9,40-40
		s-17.9-40-40-40c-12.7,0-24.5,6-32,16c-0.1,0-0.1,0-0.2,0h-18.4c9.1-19.2,28.6-32,50.5-32c30.9,0,56,25.1,56,56S462.9,152,432,152z
		"/>
	<path class="st0" d="M64,296c-13.2,0-24,10.8-24,24s10.8,24,24,24s24-10.8,24-24S77.2,296,64,296z M64,328c-4.4,0-8-3.6-8-8
		s3.6-8,8-8s8,3.6,8,8S68.4,328,64,328z"/>
	<path class="st0" d="M328,304c0,13.2,10.8,24,24,24s24-10.8,24-24s-10.8-24-24-24S328,290.8,328,304z M360,304c0,4.4-3.6,8-8,8
		s-8-3.6-8-8s3.6-8,8-8S360,299.6,360,304z"/>
	<path class="st0" d="M416,488h-32V376h-64v112h-32V328h-64v160h-32V328h-64v160H96v-96H32v112h448V184h-64V488z M80,488H48v-80h32
		V488z M336,392h32v96h-32V392z M240,344h32v144h-32V344z M144,344h32v144h-32V344z M432,200h32v288h-32V200z"/>
</g>
</svg>
