<?xml version="1.0" encoding="utf-8"?>
<!-- Generator: Adobe Illustrator 26.0.3, SVG Export Plug-In . SVG Version: 6.00 Build 0)  -->
<svg version="1.1" id="Layer_1" xmlns="http://www.w3.org/2000/svg" xmlns:xlink="http://www.w3.org/1999/xlink" x="0px" y="0px"
	 viewBox="0 0 512 512" style="enable-background:new 0 0 512 512;" xml:space="preserve">
<style type="text/css">
	.st0{fill:#2A6E94;}
</style>
<g>
	<g>
		<path class="st0" d="M497.6,169.5c-11.1-5.8-27.9-4-38.4,13.6c0,0-0.1,0.1-0.1,0.2l-38.9,67.5c-11.2-5.8-25.4-2.9-33.4,7.4
			c-2.8,3.6-12,15.8-21.7,28.8c-5.3,7.1-10.7,14.2-14.8,19.7c-3.3,4.4-2.4,10.7,2,14c4.4,3.3,10.7,2.4,14-2
			c4.1-5.5,9.5-12.6,14.8-19.7c9.2-12.3,18.8-25,21.5-28.5c2.3-2.9,6.7-3.5,9.6-1.2c2.2,1.7,2,5.8-0.3,12.2
			c-8.5,22.9-19,45.7-28.9,62.7c-2.8,4.8-1.2,10.9,3.6,13.7c4.8,2.8,10.9,1.2,13.7-3.6c10.5-17.9,21.5-41.9,30.4-65.8
			c3.1-8.3,3.6-14.9,2.7-20.2l43.1-74.9c3.5-5.8,8.1-8.1,12-6.1c2.7,1.4,5,5,2.6,10.5c-2.9,6.4-9.2,22.4-17.1,42.6
			c-10.5,26.7-23.6,59.9-34.7,85.8c-13.5,31.5-18.7,39.1-42.7,62.6l-38.3,37.5c-2.5,2.5-3.6,6.1-2.7,9.5l13.4,54.2
			c0,0.1,0,0.1,0.1,0.2c0.2,0.8-0.2,1.5-0.5,1.7h-78.1c-7.4,0-9-2.1-10.7-6.6c-19.6-53.1,0.6-83.6,20.4-104.2
			c3.8-4,3.7-10.3-0.3-14.1c-4-3.8-10.3-3.7-14.1,0.3c-14.6,15.2-24.3,30.7-29.5,47.3c-2.1-6.8-5-13.4-8.6-19.8
			c-13.6-24.2-35.7-41.9-53.4-56.2c-10.3-8.3-20.1-16.1-25.6-23.2c-2.7-3.4-12.2-16.2-21.5-28.5c-9.7-13-18.9-25.2-21.7-28.8
			c-8.1-10.3-22.2-13.2-33.4-7.4l-38.9-67.5c0-0.1-0.1-0.1-0.1-0.2c-10.5-17.6-27.3-19.4-38.4-13.6c-11.2,5.8-18.8,20.2-11.7,36.4
			c0,0,0,0.1,0,0.1c1.9,4.2,5.8,13.9,9,21.9c2,5.1,7.9,7.6,13,5.6c5.1-2,7.6-7.8,5.6-13c-4.9-12.2-7.6-19.1-9.3-22.7
			c-2.4-5.5-0.1-9.1,2.6-10.5c3.9-2,8.5,0.3,12,6.1l43.1,74.9c-0.9,5.3-0.3,11.9,2.7,20.2c8.9,23.9,20,47.9,30.4,65.8
			c2.8,4.8,8.9,6.4,13.7,3.6c4.8-2.8,6.4-8.9,3.6-13.7c-9.9-17-20.4-39.8-28.9-62.7c-2.4-6.4-2.5-10.5-0.3-12.2
			c2.9-2.3,7.3-1.7,9.6,1.2c2.7,3.4,12.2,16.2,21.5,28.5c9.7,12.9,18.9,25.2,21.7,28.7c6.9,8.9,17.6,17.4,28.8,26.5
			c36,28.9,76.8,61.6,51.1,131.2c-1.7,4.5-3.3,6.6-10.7,6.6h-78.1c-0.2-0.2-0.7-0.9-0.5-1.7c0-0.1,0-0.1,0.1-0.2l13.4-54.2
			c0.8-3.4-0.2-7.1-2.7-9.5l-38.3-37.5c-24-23.5-29.2-31.1-42.7-62.6c-2.8-6.5-5.9-13.9-9.2-22.1c-2.1-5.1-7.9-7.6-13-5.5
			c-5.1,2.1-7.6,7.9-5.5,13c3.5,8.4,6.5,15.8,9.4,22.4c14.5,34,21.1,43.7,47.1,69.1l34.2,33.5l-12,48.6c-1.7,6.4-0.3,13.4,3.8,18.7
			c3.9,5.1,9.7,8,15.9,8h78.3c14.9,0,24.5-6.4,29.4-19.7c1.8-5,3.4-9.9,4.7-14.8c1.3,4.9,2.9,9.8,4.7,14.8
			c4.9,13.2,14.5,19.7,29.4,19.7h78.3c6.2,0,12-2.9,15.9-8c4.1-5.3,5.5-12.3,3.8-18.7l-12-48.6l34.2-33.5
			c26-25.4,32.6-35.1,47.1-69.1c11.2-26.1,24.3-59.5,34.9-86.3c7.6-19.2,14.1-35.7,16.8-41.7c0,0,0-0.1,0-0.1
			C516.4,189.7,508.8,175.3,497.6,169.5L497.6,169.5z"/>
		<path class="st0" d="M47.6,266.1c0-5.5-4.5-10-10-10h0c-5.5,0-10,4.5-10,10c0,5.5,4.5,10,10,10S47.6,271.6,47.6,266.1z"/>
		<path class="st0" d="M326.6,334.6c-5.5,0-10,4.5-10,10c0,5.5,4.5,10,10,10s10-4.5,10-10C336.6,339.1,332.1,334.6,326.6,334.6
			L326.6,334.6z"/>
		<path class="st0" d="M96,165.7h91.2c-0.8,4.2-1.2,8.5-1.2,12.9v17.1c0,5.5,4.5,10,10,10h120c5.5,0,10-4.5,10-10v-17.1
			c0-4.4-0.4-8.7-1.2-12.9H416c5.5,0,10-4.5,10-10v-17.1c0-23.3-11.4-44.6-30.3-57.6c2.9-5.9,4.6-12.5,4.6-19.6V44.3
			C400.3,19.9,380.4,0,356,0c-24.4,0-44.3,19.9-44.3,44.3v17.1c0,7,1.7,13.7,4.6,19.6c-6.2,4.3-11.5,9.5-16,15.3V84.3
			c0-24.4-19.9-44.3-44.3-44.3s-44.3,19.9-44.3,44.3v12.1c-4.5-5.9-9.9-11.1-16-15.3c2.9-5.9,4.6-12.6,4.6-19.6V44.3
			C200.3,19.9,180.4,0,156,0s-44.3,19.9-44.3,44.3v17.1c0,7,1.6,13.7,4.6,19.6C97.4,94,86,115.3,86,138.6v17.1
			C86,161.3,90.5,165.7,96,165.7L96,165.7z M306,185.7H206v-7.1c0-16.9,8.9-32.9,23-42c7.5,5.7,16.8,9.2,26.9,9.2
			c10.1,0,19.5-3.4,27-9.2c2.2,1.4,4.2,2.9,6.1,4.6c0.3,0.3,0.6,0.6,1,0.9c5.2,4.8,9.2,10.5,12,16.9c0.1,0.4,0.3,0.8,0.5,1.2
			c2.3,5.8,3.5,12,3.5,18.5L306,185.7L306,185.7z M406,138.6v7.1h-88.2c-3-5.6-6.7-10.8-11.1-15.4c2.3-13.8,10.5-26.1,22.3-33.8
			c7.5,5.7,16.8,9.2,26.9,9.2c10.1,0,19.5-3.4,27-9.2C397.3,105.7,406,121.4,406,138.6z M331.7,44.3c0-13.4,10.9-24.3,24.3-24.3
			c13.4,0,24.3,10.9,24.3,24.3v17.1c0,13.4-10.9,24.3-24.3,24.3c-13.4,0-24.3-10.9-24.3-24.3V44.3z M231.7,84.3
			c0-13.4,10.9-24.3,24.3-24.3c13.4,0,24.3,10.9,24.3,24.3v17.1c0,13.4-10.9,24.3-24.3,24.3c-13.4,0-24.3-10.9-24.3-24.3L231.7,84.3
			z M131.7,44.3c0-13.4,10.9-24.3,24.3-24.3s24.3,10.9,24.3,24.3v17.1c0,13.4-10.9,24.3-24.3,24.3s-24.3-10.9-24.3-24.3V44.3z
			 M106,138.6c0-17.2,8.7-32.9,23-42c7.5,5.8,16.8,9.2,27,9.2c10.1,0,19.5-3.4,26.9-9.2c11.8,7.6,20,20,22.3,33.8
			c-4.4,4.6-8.1,9.8-11.1,15.4H106L106,138.6L106,138.6z"/>
	</g>
</g>
</svg>
