<?xml version="1.0" encoding="utf-8"?>
<!-- Generator: Adobe Illustrator 26.0.3, SVG Export Plug-In . SVG Version: 6.00 Build 0)  -->
<svg version="1.1" id="_x33_0" xmlns="http://www.w3.org/2000/svg" xmlns:xlink="http://www.w3.org/1999/xlink" x="0px" y="0px"
	 viewBox="0 0 512 512" style="enable-background:new 0 0 512 512;" xml:space="preserve">
<style type="text/css">
	.st0{fill:#2A6E94;}
</style>
<g>
	<path class="st0" d="M504,264c0-26.5-21.5-48-48-48c-7.7,0-14.7,2.8-20.2,7.4c-10-4.8-21-7.4-32.1-7.4c-20,0-38.8,7.8-53,22
		l-2.9,2.9c-2.6,0.8-5.1,1.8-7.5,3c-8.8-25.4-33-43.8-61.4-43.8h-37.7c-17.4,0-33,10.4-39.7,26.2l-11.3,5.7
		c-9.5,4.8-16.5,12.9-19.9,22.5c-16-14.2-36.8-22.4-58.4-22.4c-48.5,0-88,39.5-88,88v54.1c0,18.9,6,37.2,16.9,52.4
		C20.6,443.1,8,468.3,8,496v8h496v-8c0-40.5-26.9-75.8-65.8-86.7l-2.3-6.9c9.7-5.6,17-15.1,19.3-26.5h0.8c17.6,0,32-14.4,32-32
		c0-10.8-5.4-20.3-13.6-26.1C492.2,306.5,504,286.6,504,264L504,264z M353.9,255.8l2.2-0.5l6-6c11.1-11.1,25.9-17.3,41.7-17.3
		c7.7,0,15.4,1.5,22.5,4.5c-1.4,3.6-2.2,7.5-2.2,11.5c0,17.6,14.4,32,32,32v-16c-8.8,0-16-7.2-16-16s7.2-16,16-16
		c17.6,0,32,14.4,32,32c0,26.5-21.5,48-48,48s-48-21.5-48-48h-16c0,5.7,0.8,11.3,2.3,16.6c-16.7,2.4-30.1,15-33.4,31.4H344
		c0-6.5-2-12.6-5.3-17.6l3.4-13.6c1.3-5.1,1.9-10.4,1.9-15.8c0-1.6-0.1-3.1-0.2-4.6C346.9,258.4,350.2,256.7,353.9,255.8
		L353.9,255.8z M361.8,409.3c-6.9,1.9-13.4,4.8-19.6,8.3c-11.5-17.4-28-31.4-47.8-39.7l-2.5-7.5c9.7-5.6,17-15.1,19.3-26.5h0.8
		c0,17.6,14.4,32,32,32h0.8c2.3,11.4,9.5,20.8,19.3,26.5L361.8,409.3z M92.2,456h39.6c-4,11.3-10.8,21.4-19.8,29.5
		C103,477.4,96.2,467.3,92.2,456z M112,392c-22.1,0-40-17.9-40-40v-30.7c0-9.8,5.2-18.6,13.4-23.4c11.4,14.1,27.9,23.5,46,26.1
		c11.7,1.7,20.6,11.9,20.6,23.8v4.2C152,374.1,134.1,392,112,392L112,392z M112,408c6.2,0,12.1-1,17.6-2.9l6.4,12.8V432
		c0,2.7-0.2,5.4-0.5,8h-47c-0.3-2.6-0.5-5.3-0.5-8v-14.1l6.4-12.8C99.9,407,105.8,408,112,408z M152,432v-5.2
		c3.5,1.3,6.8,2.8,10.1,4.6c-6.5,13.8-10.1,29.1-10.1,45V488h-20.2C144.7,472.4,152,452.5,152,432z M200,328c-8.8,0-16-7.2-16-16
		s7.2-16,16-16V328z M200.8,344c2.3,11.4,9.5,20.8,19.3,26.5l-2.5,7.5c-6.7,2.8-13,6.3-18.8,10.3c0.8-4.7,1.2-9.4,1.2-14.2V344
		H200.8z M223.7,392.8l15.7,7.8l-19.7,11.8l-6.3-14.6C216.7,396,220.2,394.3,223.7,392.8L223.7,392.8z M288.3,392.8
		c3.6,1.5,7,3.2,10.3,5.1l-6.3,14.6l-19.7-11.8L288.3,392.8z M278.2,379.9L256,391.1L233.8,380l1.5-4.4c1.6,0.2,3.1,0.5,4.7,0.5h32
		c1.6,0,3.2-0.3,4.7-0.5L278.2,379.9z M272,360h-32c-13.2,0-24-10.8-24-24v-48.3c0-8.6,7-15.7,15.7-15.7h48.7
		c8.6,0,15.6,7,15.6,15.7V336C296,349.2,285.2,360,272,360z M168,476.4c0-27,12.2-52.1,32.1-69l12.2,28.2l43.7-26.2l43.7,26.2
		l12.2-28.2c19.9,16.9,32.1,42.1,32.1,69V488H168V476.4z M312,296c8.8,0,16,7.2,16,16s-7.2,16-16,16V296z M344,328v32
		c-8.8,0-16-7.2-16-16c0-1.7,0.4-3.3,0.9-4.9c4.1-2.6,7.6-6.1,10.2-10.2C340.7,328.4,342.3,328,344,328L344,328z M197.5,246.2
		l17.1-8.5l1-3.1c3.7-11.1,14-18.5,25.7-18.5H279c27,0,49,22,49,49c0,4-0.5,8-1.5,11.9l-1.5,6c-4-1.8-8.4-2.8-13-2.8h-1
		c-3.4-13.7-15.8-24-30.6-24h-48.7c-14.8,0-27.2,10.3-30.6,24h-1c-4.7,0-9,1-13,2.8l-2.2-8.9c-0.5-1.9-0.7-3.9-0.7-5.9
		C184,258.7,189.2,250.4,197.5,246.2L197.5,246.2z M40,374.1V320c0-39.7,32.3-72,72-72c22.5,0,43.1,10.2,56.9,27.9
		c0.1,0.6,0.2,1.2,0.3,1.9l4.1,16.6c-3.4,5.1-5.3,11.1-5.3,17.6c0,11.8,6.5,22,16,27.6v34.5c0,13.7-3.8,27.1-11,38.8l0.1,0.1
		c-1.1,1.5-2.2,3-3.2,4.5c-6.4-3.6-13.2-6.4-20.4-8.3l-5.6-11.2c14.5-10.1,24.1-26.9,24.1-46v-4.2c0-19.8-14.8-36.8-34.3-39.6
		c-15.9-2.3-30.1-11.2-39-24.6l-3.4-5.1l-5.8,1.9C67.8,286.3,56,302.7,56,321.3V352c0,19,9.5,35.8,24.1,46l-5.6,11.2
		c-7.2,2-14.1,4.8-20.4,8.3C45,404.9,40,389.7,40,374.1L40,374.1z M72,426.9v5.1c0,20.5,7.3,40.4,20.2,56H24.4
		C27.4,460.2,45.9,436.7,72,426.9z M487.6,488H360v-11.6c0-15.8-3.6-31-10-44.8c5-2.8,10.2-5,15.7-6.6l1.3,1.3
		c8.8,8.8,20.5,13.6,33,13.6s24.2-4.8,33-13.7l1.3-1.3C463.4,433.3,484.4,458.3,487.6,488L487.6,488z M422.8,413.8l-1.2,1.2
		c-11.6,11.6-31.7,11.6-43.3,0l-1.2-1.2l2.1-6.3c1.6,0.2,3.1,0.5,4.7,0.5h32c1.6,0,3.2-0.3,4.7-0.5L422.8,413.8z M440,368
		c0,13.2-10.8,24-24,24h-32c-13.2,0-24-10.8-24-24v-48c0-13.2,10.8-24,24-24h0.7c11.1,19.1,31.7,32,55.3,32V368z M456,360v-32
		c8.8,0,16,7.2,16,16S464.8,360,456,360z"/>
	<path class="st0" d="M436.9,88C400.6,58.6,357.6,38.6,312,29.6V8H200v21.6C146.1,40.2,96.9,65.8,57,104H8v112h112V104H80.7
		c34.4-29.1,75.2-48.8,119.3-58v74h112V45.9c35.1,7.4,68.5,21.7,98.1,42.1H392v112h112V88H436.9z M24,200v-80h70.4l-38.8,44.3
		l-10-10l-11.3,11.3l22,22l47.6-54.4V200H24z M216,104V24h70.4l-38.8,44.3l-10-10l-11.3,11.3l22,22L296,37.3V104L216,104z M408,184
		v-80h70.4l-38.8,44.3l-10-10l-11.3,11.3l22,22l47.6-54.4V184H408z"/>
	<path class="st0" d="M248,152h16v16h-16V152z"/>
	<path class="st0" d="M280,152h16v16h-16V152z"/>
	<path class="st0" d="M216,152h16v16h-16V152z"/>
</g>
</svg>
