<svg height="512pt" viewBox="0 -31 512.00019 512" width="512pt" xmlns="http://www.w3.org/2000/svg"><path d="m256 26.039062c-55.996094 0-101.554688 45.558594-101.554688 101.554688s45.558594 101.550781 101.554688 101.550781 101.550781-45.554687 101.550781-101.550781-45.554687-101.554688-101.550781-101.554688zm0 188.105469c-47.726562 0-86.550781-38.824219-86.550781-86.550781s38.824219-86.550781 86.550781-86.550781 86.550781 38.824219 86.550781 86.550781-38.824219 86.550781-86.550781 86.550781zm126.980469 74.148438h-38.984375v-68.390625c24.382812-23.25 39.597656-56.035156 39.597656-92.308594 0-14.855469-2.53125-29.410156-7.523438-43.261719-1.402343-3.898437-5.699218-5.917969-9.597656-4.515625-3.898437 1.40625-5.917968 5.703125-4.515625 9.601563 4.402344 12.214843 6.636719 25.0625 6.636719 38.175781 0 62.082031-50.507812 112.59375-112.59375 112.59375-62.082031 0-112.59375-50.511719-112.59375-112.59375 0-62.085938 50.511719-112.59375 112.59375-112.59375 35.632812 0 68.402344 16.332031 89.90625 44.804688 2.496094 3.304687 7.199219 3.960937 10.507812 1.464843 3.304688-2.496093 3.960938-7.199219 1.464844-10.503906-24.367187-32.261719-61.5-50.765625-101.878906-50.765625-70.355469 0-127.59375 57.238281-127.59375 127.59375 0 36.269531 15.214844 69.058594 39.597656 92.308594v68.390625h-38.984375c-8.601562 0-16 4.933593-19.304687 12.875-3.308594 7.9375-1.597656 16.664062 4.460937 22.769531l14.296875 14.402344c1.46875 1.480468 3.398438 2.21875 5.324219 2.21875 1.910156 0 3.820313-.726563 5.285156-2.175782 2.9375-2.917968 2.957031-7.667968.039063-10.609374l-14.296875-14.402344c-2.578125-2.597656-1.617188-5.582032-1.261719-6.4375.355469-.851563 1.800781-3.640625 5.457031-3.640625h46.484375c4.140625 0 7.5-3.355469 7.5-7.5v-63.613281c20.695313 14.492187 45.867188 23.007812 72.996094 23.007812 27.125 0 52.296875-8.515625 72.996094-23.007812v63.613281c0 4.144531 3.355468 7.5 7.5 7.5h46.484375c3.65625 0 5.101562 2.785156 5.457031 3.640625.355469.855468 1.3125 3.839844-1.261719 6.4375l-114.226562 115.082031c-4.519531 4.550781-10.539063 7.058594-16.949219 7.058594-6.414062 0-12.433594-2.503907-16.949219-7.054688l-75.234375-75.800781c-2.917968-2.941406-7.667968-2.957031-10.605468-.039062-2.941407 2.917968-2.957032 7.667968-.039063 10.605468l75.234375 75.800782c7.351562 7.410156 17.152344 11.488281 27.59375 11.488281s20.242188-4.082031 27.597656-11.492188l114.226563-115.082031c6.058593-6.105469 7.769531-14.832031 4.464843-22.769531-3.308593-7.941407-10.707031-12.875-19.308593-12.875zm-240.632813-88.800781c-2.121094-5.097657-7.0625-8.394532-12.585937-8.394532h-13.753907v-57.320312c0-11.449219-9.316406-20.765625-20.765624-20.765625h-47.085938c-11.449219 0-20.765625 9.3125-20.765625 20.765625v57.320312h-13.75c-5.523437 0-10.464844 3.296875-12.585937 8.394532-2.125 5.097656-.9804692 10.925781 2.90625 14.84375l52.230468 52.621093c4.132813 4.164063 9.640625 6.457031 15.507813 6.457031 5.867187 0 11.375-2.292968 15.507812-6.457031l52.230469-52.621093c3.890625-3.921876 5.035156-9.746094 2.910156-14.84375zm-65.785156 56.898437c-1.296875 1.304687-3.023438 2.023437-4.863281 2.023437-1.839844 0-3.5625-.71875-4.859375-2.023437l-49.914063-50.289063h17.96875c4.144531 0 7.5-3.359374 7.5-7.5v-64.824218c0-3.179688 2.585938-5.765625 5.765625-5.765625h47.085938c3.179687 0 5.765625 2.585937 5.765625 5.765625v64.824218c0 4.140626 3.355469 7.5 7.5 7.5h17.96875zm174.929688-152.230469h30.027343c11.359375 0 20.605469-9.246094 20.605469-20.605468 0-11.363282-9.246094-20.605469-20.605469-20.605469h-5.21875c-1.679687-9.683594-10.144531-17.070313-20.300781-17.070313-11.261719 0-20.445312 9.082032-20.605469 20.304688-15.277343 6.402344-25.519531 21.441406-25.519531 38.386718 0 18.6875 12.585938 35.191407 30.605469 40.132813l20.132812 5.523437c.167969.046876.300781.222657.300781.394532 0 .21875-.1875.410156-.40625.410156h-30.027343c-11.363281 0-20.605469 9.242188-20.605469 20.601562 0 11.363282 9.242188 20.605469 20.605469 20.605469h5.21875c1.679687 9.6875 10.144531 17.074219 20.300781 17.074219 11.261719 0 20.445312-9.082031 20.605469-20.308594 15.277343-6.402344 25.519531-21.441406 25.519531-38.382812 0-18.6875-12.585938-35.191406-30.605469-40.136719l-20.132812-5.523437c-.167969-.042969-.300781-.222657-.300781-.394532 0-.21875.191406-.40625.40625-.40625zm-4.074219 15.265625 20.132812 5.523438c11.523438 3.164062 19.574219 13.71875 19.574219 25.671875 0 12.113281-8.1875 22.707031-19.910156 25.761718-3.304688.859376-5.609375 3.84375-5.609375 7.257813v5.066406c0 3.089844-2.515625 5.605469-5.605469 5.605469s-5.605469-2.515625-5.605469-5.605469v-3.96875c0-4.140625-3.355469-7.5-7.5-7.5h-12.414062c-3.089844 0-5.605469-2.515625-5.605469-5.605469 0-3.089843 2.515625-5.605468 5.605469-5.605468h30.027343c8.496094 0 15.410157-6.910156 15.410157-15.40625 0-6.917969-4.660157-13.03125-11.332031-14.859375l-20.132813-5.523438c-11.527344-3.164062-19.578125-13.71875-19.578125-25.671875 0-12.113281 8.1875-22.707031 19.910156-25.761718 3.304688-.859376 5.609375-3.84375 5.609375-7.257813v-5.066406c0-3.089844 2.515625-5.601563 5.605469-5.601563s5.605469 2.511719 5.605469 5.601563v3.96875c0 4.140625 3.355469 7.5 7.5 7.5h12.414062c3.089844 0 5.605469 2.515625 5.605469 5.605469 0 3.089843-2.515625 5.601562-5.605469 5.601562h-30.027343c-8.496094 0-15.40625 6.914062-15.40625 15.410156 0 6.921875 4.660156 13.03125 11.332031 14.859375zm263.527343 80.066407c-2.121093-5.097657-7.0625-8.394532-12.585937-8.394532h-13.753906v-57.320312c0-11.449219-9.3125-20.765625-20.761719-20.765625h-47.085938c-11.449218 0-20.765624 9.3125-20.765624 20.765625v57.320312h-13.753907c-5.523437 0-10.464843 3.296875-12.585937 8.394532-2.125 5.097656-.980469 10.925781 2.90625 14.84375l52.234375 52.621093c4.132812 4.164063 9.640625 6.457031 15.507812 6.457031 5.867188 0 11.371094-2.292968 15.503907-6.457031l52.234374-52.621093c3.886719-3.921876 5.03125-9.746094 2.90625-14.84375zm-65.785156 56.898437c-1.296875 1.304687-3.023437 2.023437-4.859375 2.023437-1.839843 0-3.566406-.71875-4.863281-2.023437l-49.914062-50.292969h17.96875c4.144531 0 7.5-3.355468 7.5-7.5v-64.824218c0-3.175782 2.585937-5.761719 5.765624-5.761719h47.085938c3.179688 0 5.765625 2.585937 5.765625 5.761719v64.824218c0 4.144532 3.355469 7.5 7.5 7.5h17.96875zm0 0"/></svg>