<?xml version="1.0" encoding="utf-8"?>
<!-- Generator: Adobe Illustrator 26.0.3, SVG Export Plug-In . SVG Version: 6.00 Build 0)  -->
<svg version="1.1" id="Layer_1" xmlns="http://www.w3.org/2000/svg" xmlns:xlink="http://www.w3.org/1999/xlink" x="0px" y="0px"
	 viewBox="0 0 512 512" style="enable-background:new 0 0 512 512;" xml:space="preserve">
<style type="text/css">
	.st0{fill:#2A6E94;}
</style>
<path class="st0" d="M256,57c-56,0-101.6,45.6-101.6,101.6S200,260.1,256,260.1s101.6-45.6,101.6-101.6S312,57,256,57z M256,245.1
	c-47.7,0-86.6-38.8-86.6-86.6S208.3,72,256,72s86.6,38.8,86.6,86.6S303.7,245.1,256,245.1z M383,319.3h-39v-68.4
	c24.4-23.2,39.6-56,39.6-92.3c0-14.9-2.5-29.4-7.5-43.3c-1.4-3.9-5.7-5.9-9.6-4.5c-3.9,1.4-5.9,5.7-4.5,9.6
	c4.4,12.2,6.6,25.1,6.6,38.2c0,62.1-50.5,112.6-112.6,112.6c-62.1,0-112.6-50.5-112.6-112.6C143.4,96.5,193.9,46,256,46
	c35.6,0,68.4,16.3,89.9,44.8c2.5,3.3,7.2,4,10.5,1.5c3.3-2.5,4-7.2,1.5-10.5C333.5,49.5,296.4,31,256,31
	c-70.4,0-127.6,57.2-127.6,127.6c0,36.3,15.2,69.1,39.6,92.3v68.4h-39c-8.6,0-16,4.9-19.3,12.9c-3.3,7.9-1.6,16.7,4.5,22.8
	l14.3,14.4c1.5,1.5,3.4,2.2,5.3,2.2c1.9,0,3.8-0.7,5.3-2.2c2.9-2.9,3-7.7,0-10.6l-14.3-14.4c-2.6-2.6-1.6-5.6-1.3-6.4
	c0.4-0.9,1.8-3.6,5.5-3.6h46.5c4.1,0,7.5-3.4,7.5-7.5v-63.6c20.7,14.5,45.9,23,73,23c27.1,0,52.3-8.5,73-23v63.6
	c0,4.1,3.4,7.5,7.5,7.5H383c3.7,0,5.1,2.8,5.5,3.6s1.3,3.8-1.3,6.4L272.9,459.5c-4.5,4.6-10.5,7.1-16.9,7.1
	c-6.4,0-12.4-2.5-16.9-7.1l-75.2-75.8c-2.9-2.9-7.7-3-10.6,0c-2.9,2.9-3,7.7,0,10.6l75.2,75.8c7.4,7.4,17.2,11.5,27.6,11.5
	s20.2-4.1,27.6-11.5l114.2-115.1c6.1-6.1,7.8-14.8,4.5-22.8C399,324.2,391.6,319.3,383,319.3z M142.3,230.5
	c-2.1-5.1-7.1-8.4-12.6-8.4H116v-57.3c0-11.4-9.3-20.8-20.8-20.8H48.2c-11.4,0-20.8,9.3-20.8,20.8v57.3H13.6
	c-5.5,0-10.5,3.3-12.6,8.4c-2.1,5.1-1,10.9,2.9,14.8L56.2,298c4.1,4.2,9.6,6.5,15.5,6.5s11.4-2.3,15.5-6.5l52.2-52.6
	C143.3,241.4,144.5,235.6,142.3,230.5z M76.6,287.4c-1.3,1.3-3,2-4.9,2s-3.6-0.7-4.9-2l-49.9-50.3h18c4.1,0,7.5-3.4,7.5-7.5v-64.8
	c0-3.2,2.6-5.8,5.8-5.8h47.1c3.2,0,5.8,2.6,5.8,5.8v64.8c0,4.1,3.4,7.5,7.5,7.5h18L76.6,287.4z M251.5,135.2h30
	c11.4,0,20.6-9.2,20.6-20.6c0-11.4-9.2-20.6-20.6-20.6h-5.2c-1.7-9.7-10.1-17.1-20.3-17.1c-11.3,0-20.4,9.1-20.6,20.3
	c-15.3,6.4-25.5,21.4-25.5,38.4c0,18.7,12.6,35.2,30.6,40.1l20.1,5.5c0.2,0,0.3,0.2,0.3,0.4c0,0.2-0.2,0.4-0.4,0.4h-30
	c-11.4,0-20.6,9.2-20.6,20.6c0,11.4,9.2,20.6,20.6,20.6h5.2c1.7,9.7,10.1,17.1,20.3,17.1c11.3,0,20.4-9.1,20.6-20.3
	c15.3-6.4,25.5-21.4,25.5-38.4c0-18.7-12.6-35.2-30.6-40.1l-20.1-5.5c-0.2,0-0.3-0.2-0.3-0.4C251.1,135.3,251.3,135.2,251.5,135.2z
	 M247.4,150.4l20.1,5.5c11.5,3.2,19.6,13.7,19.6,25.7c0,12.1-8.2,22.7-19.9,25.8c-3.3,0.9-5.6,3.8-5.6,7.3v5.1
	c0,3.1-2.5,5.6-5.6,5.6s-5.6-2.5-5.6-5.6v-4c0-4.1-3.4-7.5-7.5-7.5h-12.4c-3.1,0-5.6-2.5-5.6-5.6s2.5-5.6,5.6-5.6h30
	c8.5,0,15.4-6.9,15.4-15.4c0-6.9-4.7-13-11.3-14.9l-20.1-5.5c-11.5-3.2-19.6-13.7-19.6-25.7c0-12.1,8.2-22.7,19.9-25.8
	c3.3-0.9,5.6-3.8,5.6-7.3v-5.1c0-3.1,2.5-5.6,5.6-5.6s5.6,2.5,5.6,5.6v4c0,4.1,3.4,7.5,7.5,7.5h12.4c3.1,0,5.6,2.5,5.6,5.6
	s-2.5,5.6-5.6,5.6h-30c-8.5,0-15.4,6.9-15.4,15.4C236.1,142.5,240.7,148.6,247.4,150.4z M510.9,230.5c-2.1-5.1-7.1-8.4-12.6-8.4
	h-13.8v-57.3c0-11.4-9.3-20.8-20.8-20.8h-47.1c-11.4,0-20.8,9.3-20.8,20.8v57.3h-13.8c-5.5,0-10.5,3.3-12.6,8.4
	c-2.1,5.1-1,10.9,2.9,14.8l52.2,52.6c4.1,4.2,9.6,6.5,15.5,6.5s11.4-2.3,15.5-6.5l52.2-52.6C511.9,241.4,513.1,235.6,510.9,230.5z
	 M445.2,287.4c-1.3,1.3-3,2-4.9,2c-1.8,0-3.6-0.7-4.9-2l-49.9-50.3h18c4.1,0,7.5-3.4,7.5-7.5v-64.8c0-3.2,2.6-5.8,5.8-5.8h47.1
	c3.2,0,5.8,2.6,5.8,5.8v64.8c0,4.1,3.4,7.5,7.5,7.5h18L445.2,287.4z"/>
</svg>
