<?xml version="1.0" encoding="utf-8"?>
<!-- Generator: Adobe Illustrator 26.0.3, SVG Export Plug-In . SVG Version: 6.00 Build 0)  -->
<svg version="1.1" id="Layer_1" xmlns="http://www.w3.org/2000/svg" xmlns:xlink="http://www.w3.org/1999/xlink" x="0px" y="0px"
	 viewBox="0 0 512 512" style="enable-background:new 0 0 512 512;" xml:space="preserve">
<style type="text/css">
	.st0{fill:#2A6E94;}
</style>
<g id="outline">
	<path class="st0" d="M488,480h-40V240c0-4.4-3.6-8-8-8h-48c-4.4,0-8,3.6-8,8v240h-16V304c0-4.4-3.6-8-8-8h-48c-4.4,0-8,3.6-8,8v176
		h-16V280c0-4.4-3.6-8-8-8h-48c-4.4,0-8,3.6-8,8v200h-16V312c0-4.4-3.6-8-8-8h-48c-4.4,0-8,3.6-8,8v168h-16V344c0-4.4-3.6-8-8-8H72
		c-4.4,0-8,3.6-8,8v136H24c-4.4,0-8,3.6-8,8s3.6,8,8,8h464c4.4,0,8-3.6,8-8S492.4,480,488,480z M80,480V352h32v128H80z M160,480V320
		h32v160H160z M240,480V288h32v192H240z M320,480V312h32v168H320z M400,480V248h32v232H400z"/>
	<path class="st0" d="M40,328c1.1,0,2.2-0.2,3.1-0.6l35.2-15.1c9,9.7,24.1,10.4,33.9,1.4c4.9-4.5,7.7-11,7.7-17.7c0-0.3,0-0.6,0-1
		l38-15.2c8.7,10,23.9,11,33.8,2.2c5.2-4.6,8.2-11.1,8.2-18.1c0-0.3,0-0.6,0-1l38-15.2c8.7,10,23.9,11,33.8,2.2
		c1.3-1.2,2.5-2.5,3.6-3.9l36.7,11c0.6,13.2,11.9,23.5,25.1,22.8c13.2-0.6,23.5-11.9,22.8-25.1c-0.1-3-0.8-5.9-2-8.6l44.9-42.3
		c11.1,7.3,25.9,4.2,33.2-6.9c5-7.6,5.3-17.3,0.8-25.1l27.2-25.6v5.5c0,4.4,3.6,8,8,8s8-3.6,8-8v-24c0-4.4-3.6-8-8-8h-24
		c-4.4,0-8,3.6-8,8c0,4.4,3.6,8,8,8h3.8l-27.2,25.6c-12.4-4.8-26.3,1.4-31,13.8c-2,5.1-2.1,10.7-0.5,15.9L347,234.7
		c-10.5-5.4-23.4-2.4-30.3,7.2l-36.7-11c-0.7-13.2-12-23.4-25.2-22.7C242,208.8,232,219.3,232,232c0,0.3,0,0.7,0,1l-38,15.2
		c-8.7-10-23.9-11-33.8-2.2c-5.2,4.6-8.2,11.1-8.2,18.1c0,0.3,0,0.6,0,1l-38,15.2c-8.7-10-23.9-11-33.8-2.2
		C75,282.5,72,289.1,72,296c0,0.5,0,1,0.1,1.6l-35.2,15.1c-4.1,1.7-5.9,6.4-4.2,10.5C33.9,326.1,36.8,328,40,328z M416,176
		c4.4,0,8,3.6,8,8s-3.6,8-8,8s-8-3.6-8-8C408,179.6,411.6,176,416,176z M336,248c4.4,0,8,3.6,8,8s-3.6,8-8,8s-8-3.6-8-8
		C328,251.6,331.6,248,336,248z M256,224c4.4,0,8,3.6,8,8s-3.6,8-8,8s-8-3.6-8-8C248,227.6,251.6,224,256,224z M176,256
		c4.4,0,8,3.6,8,8s-3.6,8-8,8s-8-3.6-8-8C168,259.6,171.6,256,176,256z M96,288c4.4,0,8,3.6,8,8s-3.6,8-8,8s-8-3.6-8-8
		C88,291.6,91.6,288,96,288z"/>
	<path class="st0" d="M184.4,214.2c3.4,2.8,8.5,2.3,11.3-1.2c2.7-3.4,2.3-8.3-1-11.1c-6.5-5.4-12.3-11.7-17.2-18.6h35
		c1.4,6.4,3,12.7,4.9,19c1.2,4.2,5.7,6.7,9.9,5.4s6.7-5.7,5.4-9.9c0,0,0-0.1,0-0.1c-1.4-4.8-2.7-9.6-3.8-14.4h54.1
		c-1.1,4.8-2.4,9.6-3.8,14.4c-1.3,4.2,1.1,8.7,5.3,10s8.7-1.1,10-5.3c0,0,0-0.1,0-0.1c1.9-6.3,3.5-12.6,4.9-19h35.1
		c-3.6,5-7.6,9.7-12.1,14c-3.2,3.1-3.3,8.1-0.2,11.3c3.1,3.2,8.1,3.3,11.3,0.2c22.1-21.1,34.6-50.3,34.5-80.8
		c-0.1-53.5-37.9-99.5-90.4-109.9c-0.2,0-0.4-0.1-0.6-0.1c-60.8-11.6-119.4,28.3-131,89.1C138.3,147.1,153.1,188.1,184.4,214.2
		L184.4,214.2z M170.9,167.3c-0.8,0-1.6,0.1-2.4,0.4c-4.5-10-7.3-20.7-8.2-31.6h46.4c0.3,10.5,1.3,20.9,2.9,31.3H170.9z M173.3,79.3
		h37.9c-2.6,13.4-4.1,27.1-4.5,40.7h-46.4C161.5,105.6,166,91.7,173.3,79.3z M351.7,120h-46.4c-0.4-13.7-1.9-27.3-4.5-40.7h37.9
		C346,91.7,350.5,105.6,351.7,120z M289.3,120h-66.6c0.5-13.7,2.1-27.3,4.8-40.7h57C287.2,92.7,288.8,106.3,289.3,120z M225.8,167.3
		c-1.7-10.3-2.7-20.8-3-31.3h66.6c-0.3,10.5-1.4,20.9-3,31.3H225.8z M341.1,167.3h-38.7c1.6-10.4,2.5-20.8,2.9-31.3h46.4
		c-0.9,10.9-3.6,21.6-8.2,31.6C342.7,167.4,341.9,167.3,341.1,167.3z M326.8,63.3h-29.6c-2.2-8.6-4.8-17-7.9-25.3
		C303.6,43.3,316.5,52,326.8,63.3z M270.1,33c4.2,9.8,7.7,19.9,10.5,30.2h-49.3c2.8-10.3,6.4-20.4,10.5-30.2
		C251.2,31.7,260.8,31.7,270.1,33L270.1,33z M222.7,38c-3.1,8.3-5.7,16.7-7.9,25.3h-29.6C195.5,52,208.4,43.3,222.7,38L222.7,38z"/>
</g>
</svg>
