<?xml version="1.0" encoding="utf-8"?>
<!-- Generator: Adobe Illustrator 26.0.3, SVG Export Plug-In . SVG Version: 6.00 Build 0)  -->
<svg version="1.1" id="Capa_1" xmlns="http://www.w3.org/2000/svg" xmlns:xlink="http://www.w3.org/1999/xlink" x="0px" y="0px"
	 viewBox="0 0 512 512" style="enable-background:new 0 0 512 512;" xml:space="preserve">
<style type="text/css">
	.st0{fill:#2A6E94;}
</style>
<g>
	<path class="st0" d="M9.7,257.4l40.8,16.1c5.4,2.1,11.3,1,15.5-2.5l32.3,20.4l5.5,3.9c-7,11.1-5.2,26.3,5.5,35.4
		c5.9,5,13.3,7.1,20.6,6.3c0.4,7.7,3.9,14.5,9.6,19.3c5.6,4.7,12.9,7.2,20.6,6.3c0.4,7.7,3.9,14.5,9.6,19.3
		c5.6,4.8,12.9,7.2,20.7,6.3c0.4,7.2,3.6,14.3,9.6,19.3c11.5,9.7,28.8,8.3,38.5-3.2l6.5-7.6l10.9,8.1c18.9,13.9,45.6,2.5,48.1-20.7
		c19.5,7.1,40.2-6.6,40.5-27.5c18.4,3.5,34.7-9.9,35.7-27.6c23.8,6.4,45.4-17.7,34.8-41.2l29.2-18.8c4.2,5,11.1,6.8,17.3,4.4
		l40.8-16.1c7.9-3.1,11.7-12,8.6-19.9l-18.6-47.3c-1.5-3.9-5.9-5.7-9.7-4.2c-3.9,1.5-5.7,5.9-4.2,9.7l18.6,47.3
		c0.1,0.2,0,0.3-0.2,0.4L456,259.6c-0.2,0.1-0.3,0-0.4-0.2c-1.4-3.6-47.2-119.7-51.3-130c0,0,0-0.1,0-0.2s0.1-0.2,0.2-0.2l40.8-16.1
		c0,0,0.1,0,0.2,0c0.1,0.1,0.2,0.1,0.2,0.2l19.8,50.1c1.5,3.9,5.9,5.7,9.7,4.2c3.9-1.5,5.7-5.9,4.2-9.7l-19.8-50.1
		c-3.1-7.9-12-11.7-19.9-8.6L399,115.1c-7.3,2.9-11.1,10.7-9.2,18.1l-21.9,8.1c-6.8,2.5-14.2,3.2-21.4,2.1l-22.1-3.5
		c-4.1-0.6-7.9,2.1-8.6,6.2c-0.6,4.1,2.1,7.9,6.2,8.6l22.1,3.5c9.7,1.5,19.7,0.6,28.9-2.8l22.1-8.1c2.4,6.1,40.2,101.9,42.7,108.2
		l-32.2,20.7l-0.5-0.4c0,0,0,0,0,0c-3.4-2.5-59.4-43.8-62-45.8c-1.6-1.2-3.6-1.7-5.9-1.3c-31.1,5.3-58.9-5.8-79.4-27.1
		c-6.4-6.7-16.8-7-23.7-0.8c-19.9,17.8-47.6,35.2-67.1,16.8c-1.9-1.8-1.9-5.2,1-7.1c24.7-15.9,50.4-38.3,71-59.1
		c5.1-5.2,12.5-7.6,19.8-6.5l28.5,4.5c4.1,0.6,7.9-2.1,8.6-6.2c0.6-4.1-2.1-7.9-6.2-8.6l-28.5-4.5c-12-1.9-24.3,2.1-32.8,10.7
		c-2.4,2.4-5.2,5.2-8.4,8.3c-9.6-3.4-19.6-5.4-29.8-6c-29.8-1.7-32.4-2-39.2-1.6c-5.3,0.3-10.7-0.6-15.6-2.6l-13.2-5.5
		c1.9-7.4-1.9-15.2-9.2-18.1L72.2,99c-7.9-3.1-16.8,0.8-19.9,8.6l-51.3,130C-2,245.5,1.8,254.3,9.7,257.4L9.7,257.4z M136.4,317.8
		c-4.4,5.2-12.2,5.8-17.4,1.4c-5.2-4.4-5.8-12.2-1.4-17.4l18.6-21.8c4.3-5.1,12.1-5.9,17.4-1.4c5.2,4.4,5.8,12.2,1.4,17.4
		c0,0,0,0,0,0L136.4,317.8z M166.6,343.5c-4.4,5.2-12.2,5.8-17.4,1.4c-5.2-4.4-5.8-12.2-1.4-17.4l18.6-21.8
		c4.6-5.4,13.1-5.9,18.3-0.6c0,0,0.1,0.1,0.1,0.1c4.2,4.5,4.5,11.6,0.4,16.4L166.6,343.5z M196.9,369.1c-4.4,5.2-12.2,5.8-17.4,1.4
		c-5.2-4.4-5.8-12.2-1.4-17.4l18.6-21.8c4.4-5.2,12.2-5.8,17.4-1.4c5.2,4.4,5.8,12.2,1.4,17.4c0,0,0,0,0,0L196.9,369.1z
		 M245.7,372.9c0,0-0.1,0.1-0.1,0.1c-3,3.5-11.2,13.2-18.6,21.8c-4.4,5.2-12.2,5.8-17.4,1.4c-5.2-4.4-5.8-12.2-1.4-17.4l18.6-21.8
		c4.4-5.2,12.2-5.8,17.4-1.4C249.3,359.9,250.1,367.6,245.7,372.9z M116.8,147.1l12.8,5.4c7,2.9,14.8,4.2,22.4,3.8
		c5.7-0.4,7.7-0.1,37.4,1.6c6.1,0.3,12.1,1.3,18,2.8c-14.7,13.3-31.2,26.5-47.7,37.1c-10.6,6.8-12.2,21.7-3,30.5
		c12.5,11.9,40.5,25.6,87.4-16.5c0.8-0.8,2.1-0.7,2.8,0c22.7,23.7,54.9,36.9,89.6,32c3.9,2.8-3.7-2.8,59.6,43.9h0
		c6.8,5,8.7,14.8,3.4,21.6c-5,6.4-14.1,7.7-20.7,2.8c-8.9-6.6-2.3-1.6-33.6-25.6c-3.3-2.5-8-1.9-10.5,1.4c-2.5,3.3-1.9,8,1.4,10.5
		l25.9,20c4.5,5.9,3.9,14.4-1.4,19.7c-5.2,5.2-13.8,5.7-19.9,1.1c-5.9-4.4-1-0.6-28.3-21.6c-3.3-2.5-8-1.9-10.5,1.4
		c-2.5,3.3-1.9,8,1.4,10.5l23,17.7c4.3,5.6,4.1,13.7-0.6,19.1c-5.1,5.8-14.1,6.6-20.6,1.8c-10.3-7.6-5.2-3.7-25.1-19.1
		c-3.3-2.5-8-1.9-10.5,1.3c-2.5,3.3-1.9,8,1.3,10.5l15.9,12.3c3.6,5.8,2.9,13.3-1.9,18.3c-5.2,5.4-13.9,6-20.2,1.4l-10.1-7.4
		l2.3-2.7c4.6-5.4,7-12.5,6.4-19.9c-0.6-7.5-4.2-14-9.6-18.6c-5.6-4.7-12.9-7.2-20.6-6.3c-0.4-7.2-3.7-14.3-9.6-19.3
		c-5.6-4.7-12.6-7-19.9-6.4c-0.2,0-0.5,0-0.7,0.1c0-0.2,0-0.5,0-0.7c-0.5-5.8-2.7-11.2-6.5-15.5c0,0,0-0.1-0.1-0.1
		c-5.9-6.8-14.7-10.3-23.7-9.3c-0.4-7.5-3.8-14.4-9.6-19.3c-11.5-9.7-28.8-8.3-38.5,3.2l-11.3,13.3l-6.6-4.6
		c-0.1-0.1-0.2-0.1-0.3-0.2l-33.3-21C98.3,194,88.9,217.9,116.8,147.1L116.8,147.1z M15,243.1l51.3-130c0-0.1,0.2-0.2,0.3-0.2
		c0,0,0.1,0,0.1,0l40.8,16.1c0.2,0.1,0.2,0.2,0.2,0.4c-2.5,6.3-49.7,125.9-51.3,130c-0.1,0.2-0.2,0.2-0.4,0.2l-40.8-16.1
		C15,243.4,15,243.3,15,243.1L15,243.1z"/>
</g>
</svg>
