<svg height="512" viewBox="0 0 60 60" width="512" xmlns="http://www.w3.org/2000/svg"><g id="Page-1" fill="none" fill-rule="evenodd"><g id="015---Clean-House" fill="rgb(0,0,0)" fill-rule="nonzero"><path id="Shape" d="m10 33.78c-.54666707-.4993521-1.25960105-.7773963-2-.78h-5c-1.65685425 0-3 1.3431458-3 3v21c0 1.6568542 1.34314575 3 3 3h5c.84849384-.0026614 1.6557601-.3662948 2.22-1h25.08c1.4674156.0006138 2.9066743-.4027938 4.16-1.166l18.74-11.408c.886642-.5347645 1.51102-1.4141041 1.7236308-2.4274668.2126108-1.0133626-.0056897-2.0695022-.6026308-2.9155332-.0205171-.03498-.0435793-.0684035-.069-.1-.967968-1.2850788-2.6470418-1.8107194-4.175-1.307l-3.077 1.024v-12.7h3c.3635259.0000009.6984185-.1972759.8746446-.515231.176226-.317955.1660241-.7064999-.0266446-1.014769l-5.51-8.81c-.1893508-.3036758-.5263272-.4832663-.8839935-.4711216s-.6816845.2141795-.85.53c-.1683155.3158204-.1553573.6974458.0339935 1.0011216l4.562 7.28h-27.646l-8.754-14h15.2c.5522847 0 1-.4477153 1-1s-.4477153-1-1-1h-17c-.3436016.002364-.6619258.1809729-.843.473h-.005l-10 16c-.19106945.3081263-.20039562.6955355-.02437408 1.0124988.17602155.3169634.50981528.5138253.87237408.5145012h5zm-2 24.22h-5c-.55228475 0-1-.4477153-1-1v-21c0-.5522847.44771525-1 1-1h5c.55228475 0 1 .4477153 1 1v21c0 .5522847-.44771525 1-1 1zm47.7-16.43c.6859401-.2267238 1.4406992-.0086381 1.9.549.015.025.031.048.048.072.2960001.391457.4115853.8903117.3179072 1.3720576-.0936781.4817458-.3877818.9009344-.8089072 1.1529424l-18.737 11.41c-.9401696.5719432-2.0195283.8743021-3.12.874l-24.3.0000002v-20.0000002h1.8c1.845108.0020745 3.634951.6299473 5.077 1.781 1.7963064 1.4330224 4.0251194 2.2152043 6.323 2.219h5.23c1.5867134-.0053096 3.0242769.9344543 3.656 2.39.3957904.8544211.2897432 1.8572583-.276 2.61h-6.09c-1.9744471.0012643-3.9045319.5857168-5.548 1.68l-.73.49c-.4583963.3081749-.5801749.9296037-.272 1.388s.9296037.5801749 1.388.272l.724-.486c1.3144658-.875765 2.8585114-1.3433624 4.438-1.344h8.89c.5394129.0006918 1.0752548-.087489 1.586-.261zm-5.7-.208-13.444 4.482c-.3046375.1035547-.6242431.1562592-.946.156h-.545c.3829696-1.1015302.3369111-2.3069063-.129-3.376-.719473-1.6788193-2.1708415-2.9336483-3.936-3.403v-11.221h19zm-25-13.362h4v11h-4.8c-1.845108-.0020745-3.634951-.6299473-5.077-1.781-1.7963064-1.4330224-4.0251194-2.2152043-6.323-2.219h-.8v-7.713l6-9.6 6.152 9.843c.1827389.2923815.5032096.4700008.848.47zm-10-15.113 1.821 2.913-6.375 10.2h-3.646z"/><path id="Shape" d="m44.991 0c-.5411549-.0002276-.9843066.43007261-1 .971v.021.008c0 .368-.091 9-8.01 9-.5522847 0-1 .4477153-1 1s.4477153 1 1 1c7.888 0 8.008 8.634 8.01 9-.0074558.5522847.4342153 1.0060441.9865 1.0135.5522847.0074558 1.0060441-.4342153 1.0135-.9865v-.021-.006c0-.368.091-9 8.009-9 .5522847 0 1-.4477153 1-1s-.4477153-1-1-1c-7.887 0-8.008-8.634-8.009-9 0-.55228475-.4477153-1-1-1zm4.451 11c-2.0477501 1.0802193-3.6305499 2.8710483-4.451 5.036-.8204501-2.1649517-2.4032499-3.9557807-4.451-5.036 2.0477501-1.08021927 3.6305499-2.87104828 4.451-5.036.8204501 2.16495172 2.4032499 3.95578073 4.451 5.036z"/><path id="Shape" d="m47 32c-.5522847 0-1 .4477153-1 1v5.279l-5.316 1.772c-.5246705.174522-.8085219.7413295-.634 1.266.174522.5246705.7413295.808522 1.266.634l6-2c.4092423-.1363037.6849662-.5196567.684-.951v-6c0-.5522847-.4477153-1-1-1z"/></g></g></svg>