<?xml version="1.0" encoding="utf-8"?>
<!-- Generator: Adobe Illustrator 26.0.3, SVG Export Plug-In . SVG Version: 6.00 Build 0)  -->
<svg version="1.1" id="Capa_1" xmlns="http://www.w3.org/2000/svg" xmlns:xlink="http://www.w3.org/1999/xlink" x="0px" y="0px"
	 viewBox="0 0 512 512" style="enable-background:new 0 0 512 512;" xml:space="preserve">
<style type="text/css">
	.st0{fill:#2A6E94;}
</style>
<g>
	<path class="st0" d="M455.9,44.1h-77.8c-4.2,0-7.5,3.4-7.5,7.5s3.4,7.5,7.5,7.5h77.8c22.7,0,41.1,18.4,41.1,41.1v234.8h-86.5
		c-4.2,0-7.5,3.4-7.5,7.5s3.4,7.5,7.5,7.5h85.8c-3.5,19.1-20.3,33.6-40.4,33.6H259.5c-4.2,0-7.5,3.4-7.5,7.5c0,4.2,3.4,7.5,7.5,7.5
		h43v29.6c0,1.8,0.6,3.5,1.8,4.9l17.7,20.5H191l17.7-20.5c1.2-1.4,1.8-3.1,1.8-4.9v-29.6h17c4.2,0,7.5-3.4,7.5-7.5
		c0-4.2-3.4-7.5-7.5-7.5H56.1c-20.1,0-36.9-14.5-40.4-33.6h362.7c4.2,0,7.5-3.4,7.5-7.5s-3.4-7.5-7.5-7.5H15V100.3
		c0-22.7,18.4-41.1,41.1-41.1h78.8c4.2,0,7.5-3.4,7.5-7.5s-3.4-7.5-7.5-7.5H56.1C25.2,44.1,0,69.3,0,100.3v242.3
		c0,31,25.2,56.1,56.1,56.1h139.3v26.8l-24.3,28.2h-10c-12,0-21.7,9.8-21.7,21.7v7.6c0,12,9.8,21.7,21.7,21.7h189.8
		c12,0,21.7-9.8,21.7-21.7v-7.6c0-12-9.8-21.7-21.7-21.7h-9l-24.3-28.2v-26.8h138.3c31,0,56.1-25.2,56.1-56.1V100.3
		C512,69.3,486.8,44.1,455.9,44.1z M357.6,475.5v7.6c0,3.7-3,6.7-6.7,6.7H161.1c-3.7,0-6.7-3-6.7-6.7v-7.6c0-3.7,3-6.7,6.7-6.7
		h189.8C354.6,468.8,357.6,471.8,357.6,475.5z"/>
	<path class="st0" d="M142.5,126c4.1,0.4,7.8-2.7,8.1-6.8c2.3-26.4,14.3-50.8,33.9-68.8c2.3-2.1,4.7-4.1,7.1-6l58.6,88.3
		c1.4,2.1,3.7,3.4,6.3,3.4h106c-2.8,39.5-27.3,73.2-61.6,89l-43.1-40.7c2-3.9,3.2-8.3,3.2-13c0-15.4-12.5-27.9-27.9-27.9
		s-27.9,12.5-27.9,27.9c0,3.8,0.8,7.4,2.2,10.7l-6.7,5.3c-3.3,2.6-3.8,7.3-1.2,10.6c1.5,1.9,3.7,2.9,5.9,2.9c1.6,0,3.3-0.5,4.7-1.6
		l6.7-5.3c4.6,3.3,10.3,5.3,16.4,5.3c5.2,0,10.1-1.5,14.3-4l37.7,35.6c-9.1,2.6-18.7,3.9-28.6,3.9c-50.7,0-94.5-36-104.3-85.7
		c-0.8-4.1-4.7-6.7-8.8-5.9c-4.1,0.8-6.7,4.8-5.9,8.8c4.6,23.4,15.8,44.2,31.5,60.5l-56.2,44.4c-4.6-3.3-10.3-5.3-16.4-5.3
		c-15.4,0-27.9,12.5-27.9,27.9c0,15.4,12.5,27.9,27.9,27.9s27.9-12.5,27.9-27.9c0-3.8-0.8-7.4-2.2-10.7l58.1-45.9
		c21,17,47.7,27,76.3,27c14.4,0,28.3-2.5,41.1-7.2l25.2,23.8c-2,3.9-3.2,8.3-3.2,13c0,15.4,12.5,27.9,27.9,27.9
		c15.4,0,27.9-12.5,27.9-27.9c0-4.6-1.1-9-3.1-12.8l54.8-51.1c4.2,2.6,9.2,4.1,14.5,4.1c15.4,0,27.9-12.5,27.9-27.9
		c0-15.4-12.5-27.9-27.9-27.9c-15.4,0-27.9,12.5-27.9,27.9c0,4.6,1.1,9,3.1,12.8l-54.8,51.1c-4.2-2.6-9.2-4.1-14.5-4.1
		c-5.2,0-10.1,1.5-14.3,4L312.5,236c38.8-20.3,65.3-60.9,65.3-107.6c0-66.9-54.4-121.3-121.3-121.3c-30.5,0-59.7,11.4-82.2,32.1
		c-22.3,20.6-36,48.5-38.7,78.6C135.3,122,138.4,125.6,142.5,126L142.5,126z M220.3,171.3c0-7.1,5.8-12.8,12.8-12.8
		c7.1,0,12.8,5.8,12.8,12.8c0,7.1-5.8,12.8-12.8,12.8C226.1,184.1,220.3,178.4,220.3,171.3z M96.5,292.2c-7.1,0-12.8-5.8-12.8-12.8
		s5.8-12.8,12.8-12.8c7.1,0,12.8,5.8,12.8,12.8S103.5,292.2,96.5,292.2z M441.4,178.8c7.1,0,12.8,5.8,12.8,12.8
		c0,7.1-5.8,12.8-12.8,12.8c-7.1,0-12.8-5.8-12.8-12.8C428.6,184.6,434.3,178.8,441.4,178.8z M356.8,270.6
		C356.8,270.6,356.8,270.6,356.8,270.6C356.8,270.7,356.8,270.7,356.8,270.6c2.2,2.4,3.5,5.4,3.5,8.8c0,7.1-5.8,12.8-12.8,12.8
		s-12.8-5.8-12.8-12.8c0-3.4,1.3-6.5,3.5-8.8c0,0,0,0,0,0c0,0,0,0,0,0c2.3-2.5,5.6-4,9.3-4C351.1,266.6,354.4,268.1,356.8,270.6
		L356.8,270.6z M362.5,120.9h-102l-56.4-85c15.8-9,33.8-13.8,52.4-13.8C312.6,22.2,358.6,65.8,362.5,120.9L362.5,120.9z"/>
</g>
</svg>
