<?xml version="1.0" encoding="utf-8"?>
<!-- Generator: Adobe Illustrator 26.0.3, SVG Export Plug-In . SVG Version: 6.00 Build 0)  -->
<svg version="1.1" id="Layer_3" xmlns="http://www.w3.org/2000/svg" xmlns:xlink="http://www.w3.org/1999/xlink" x="0px" y="0px"
	 viewBox="0 0 512 512" style="enable-background:new 0 0 512 512;" xml:space="preserve">
<style type="text/css">
	.st0{fill:#2A6E94;}
</style>
<path class="st0" d="M479.4,280.4L408,250.7v-21.4c19.9-11.4,33.9-30.8,38.4-53.3h1.6c13.3,0.2,24.1-10.4,24.3-23.7
	s-10.4-24.1-23.7-24.3l7.8-18.2c13.9-32.3-0.5-69.8-32.6-84.4l-22.3-10.2c-26.9-11.9-58.1-8.5-81.9,8.9l-12.4,9.4
	c-12.7,3.3-23.6,11.4-30.4,22.6c-7.6,12.6-9.2,27.9-4.4,41.7c-12.1-2.4-24.5-2.1-36.5,0.9c7.1-29.9-8.1-60.7-36.1-73.4l-22.3-10.2
	c-26.9-11.9-58.1-8.5-81.9,8.9l-12.4,9.4c-26.7,6.8-42.8,34-35.9,60.6c0.9,3.4,2.1,6.8,3.7,9.9L63,128
	c-13.3,0.3-23.8,11.2-23.5,24.5S50.7,176.3,64,176h1.6c4.5,22.5,18.5,41.9,38.4,53.3v21.4l-71.4,29.8C17.7,286.6,8,301.2,8,317.3
	V424c0,4.4,3.6,8,8,8h56v64c0,4.4,3.6,8,8,8h352c4.4,0,8-3.6,8-8v-64h56c4.4,0,8-3.6,8-8V317.3C504,301.2,494.3,286.6,479.4,280.4z
	 M283,117.8l22.3,10.2c24.1,11,35,39.2,24.5,63.5l-2.4,5.5l-8.2-16.6c-2-4-6.8-5.6-10.7-3.6c-0.5,0.2-0.9,0.5-1.3,0.8l-12.8,9.6
	c-22.8,17.1-54,17.1-76.8,0l-12.8-9.6c-1.9-1.4-4.3-1.9-6.6-1.4c-2.3,0.5-4.3,2.1-5.3,4.2l-8.8,17.7l-6.6-13.2
	c-8.4-16.7-1.6-37,15.1-45.4c4.7-2.3,9.9-3.6,15.1-3.6c12.5,0,24.2,6.2,31.1,16.7l2.5,3.8l13.3-8.9l-2.5-3.8
	c-7.1-10.7-17.8-18.4-30.2-21.8C240.3,110.6,263.2,109.1,283,117.8z M336,232h8c4.4,0,8,3.6,8,8s-3.6,8-8,8h-8V232z M232,324.3
	c15.6,4.9,32.4,4.9,48,0v16.4l-24,24l-24-24V324.3z M256,312c-35.3,0-64-28.7-64-64v-30.1l10.9-21.7l5.1,3.8
	c28.4,21.3,67.6,21.3,96,0l5.1-3.8l10.9,21.7V248C320,283.3,291.3,312,256,312z M176,248h-8c-4.4,0-8-3.6-8-8s3.6-8,8-8h8V248z
	 M72,408.3v7.7H24v-98.7c0-9.7,5.8-18.4,14.8-22.1l76.3-31.8c3-1.2,4.9-4.2,4.9-7.4v-31.5c-0.1-3.1-1.9-5.9-4.6-7.3
	c-19.4-9.7-32.6-28.6-35-50.1c-0.4-4.1-3.9-7.1-8-7.1H64c-4.4,0-8-3.6-8-8s3.6-8,8-8h8c4.4,0,8-3.6,8-8c0,0,0,0,0-0.1l-0.1-8
	c0-1.2-0.3-2.4-0.8-3.5L65.4,97c-8.3-16.7-1.6-37,15.2-45.4c2.5-1.3,5.2-2.2,7.9-2.8c1.1-0.3,2.2-0.7,3.1-1.4L105.4,37
	c19-14,44-16.7,65.6-7.1L193.3,40c24.1,11,35,39.2,24.5,63.5l-1.3,3c-3,1.7-6,3.6-8.7,5.6l-12.6,9.4l0,0
	c-26.6,6.8-42.7,34-35.8,60.6c0.9,3.4,2.1,6.7,3.7,9.9l12,23.9h-7c-13.3,0-24,10.7-24,24s10.7,24,24,24h9.6
	c4.6,22.4,18.6,41.7,38.4,53.2v20.7l-114.7,31.9C84,374.6,72,390.4,72,408.3z M424,488h-48v-64h-16v64H152v-64h-16v64H88v-79.7
	c0-10.8,7.2-20.2,17.6-23.1L221.7,353l28.7,28.7c3.1,3.1,8.2,3.1,11.3,0l28.7-28.7l116,32.2c10.4,2.9,17.6,12.3,17.6,23.1V488z
	 M488,416h-48v-7.7c0-18-12-33.7-29.3-38.5L296,337.9v-20.7c19.8-11.4,33.8-30.8,38.4-53.2h9.6c13.3,0,24-10.7,24-24s-10.7-24-24-24
	h-7.3l7.8-18.2c13.9-32.3-0.5-69.8-32.6-84.4l-18.6-8.5l-4-8c-8.3-16.7-1.6-37,15.1-45.4c2.5-1.3,5.2-2.2,7.9-2.8
	c1.1-0.3,2.2-0.7,3.1-1.4L329.4,37c19-14,44-16.7,65.6-7.1L417.3,40c24.1,11,35,39.2,24.5,63.5l-9.2,21.3c-0.4,1-0.7,2.1-0.7,3.2
	l0.1,8c0,4.4,3.6,8,8,8h8c4.4,0,8,3.6,8,8s-3.6,8-8,8h-8.4c-4.1,0-7.5,3.1-8,7.1c-2.4,21.7-15.6,40.6-35.2,50.2
	c-2.7,1.4-4.4,4.1-4.4,7.2V256c0,3.2,1.9,6.1,4.9,7.4l76.3,31.8c8.9,3.7,14.8,12.5,14.8,22.1V416z"/>
</svg>
