<?xml version="1.0" encoding="utf-8"?>
<!-- Generator: Adobe Illustrator 26.0.3, SVG Export Plug-In . SVG Version: 6.00 Build 0)  -->
<svg version="1.1" id="Capa_1" xmlns="http://www.w3.org/2000/svg" xmlns:xlink="http://www.w3.org/1999/xlink" x="0px" y="0px"
	 viewBox="0 0 512 512" style="enable-background:new 0 0 512 512;" xml:space="preserve">
<style type="text/css">
	.st0{fill:#2A6E94;}
</style>
<g>
	<g>
		<path class="st0" d="M376.8,356c-4.4,0-8.6,1-12.4,2.7c-4.5-11-15.3-18.7-27.9-18.7c-7.7,0-14.8,2.9-20.1,7.7
			c-5.3-4.8-12.4-7.7-20.1-7.7c-3.6,0-7,0.6-10.1,1.8v-47.7c0-16.6-13.5-30.1-30.1-30.1s-30.1,13.5-30.1,30.1v126l-5.7-9.4
			c-8.9-14.6-27.4-19.3-42.1-10.8c-14,8.1-19.5,25.9-12.5,40.5l31.9,66c1.7,3.6,5.3,5.7,9,5.7c1.5,0,2.9-0.3,4.3-1
			c5-2.4,7.1-8.4,4.7-13.4l-31.9-66c-2.5-5.2-0.6-11.6,4.5-14.5c5.3-3,11.9-1.4,15.1,3.8l24.3,39.9c2.3,3.8,6.9,5.6,11.2,4.4
			c4.3-1.2,7.3-5.1,7.3-9.6V294.1c0-5.6,4.5-10.1,10.1-10.1s10.1,4.5,10.1,10.1v124.8c0,5.5,4.5,10,10,10s10-4.5,10-10v-48.8
			c0-5.6,4.5-10.1,10.1-10.1s10.1,4.5,10.1,10.1v7.2v41.6c0,5.5,4.5,10,10,10s10-4.5,10-10v-41.6v-7.2c0-5.6,4.5-10.1,10.1-10.1
			s10.1,4.5,10.1,10.1v16V399v19.9c0,5.5,4.5,10,10,10s10-4.5,10-10V399v-12.9c0-5.6,4.5-10.1,10.1-10.1s10.1,4.5,10.1,10.1V502
			c0,5.5,4.5,10,10,10s10-4.5,10-10V386.1C406.9,369.5,393.4,356,376.8,356z"/>
	</g>
</g>
<g>
	<g>
		<path class="st0" d="M256,230c-35.3,0-64.1,28.8-64.1,64.1c0,5.5,4.5,10,10,10s10-4.5,10-10c0-24.3,19.8-44.1,44.1-44.1
			s44.1,19.8,44.1,44.1c0,5.5,4.5,10,10,10s10-4.5,10-10C320.1,258.7,291.4,230,256,230z"/>
	</g>
</g>
<g>
	<g>
		<path class="st0" d="M348.4,255.4C332.7,218.1,296.5,194,256,194C200.9,194,156,238.9,156,294.1c0,5.5,4.5,10,10,10s10-4.5,10-10
			c0-44.2,35.9-80.1,80.1-80.1c32.4,0,61.4,19.3,73.9,49.1c2.1,5.1,8,7.5,13.1,5.4C348.1,266.3,350.5,260.5,348.4,255.4z"/>
	</g>
</g>
<g>
	<g>
		<path class="st0" d="M346.1,283.7C346.1,283.7,346.1,283.7,346.1,283.7c-5.6,0-10,4.5-10,10v0.3c0,5.5,4.5,10,10,10s10-4.5,10-10
			v-0.4C356.1,288.2,351.6,283.7,346.1,283.7z"/>
	</g>
</g>
<g>
	<g>
		<path class="st0" d="M256,0c-20.4,0-37,16.6-37,37c0,16.9,11.4,31.2,27,35.6v55.5c0,5.5,4.5,10,10,10c5.5,0,10-4.5,10-10V72.6
			c15.6-4.4,27-18.7,27-35.6C293,16.6,276.4,0,256,0z M256,54c-9.4,0-17-7.6-17-17s7.6-17,17-17s17,7.6,17,17S265.4,54,256,54z"/>
	</g>
</g>
<g>
	<g>
		<path class="st0" d="M475,219c-16.9,0-31.2,11.4-35.6,27h-55.5c-5.5,0-10,4.5-10,10s4.5,10,10,10h55.5c4.4,15.6,18.7,27,35.6,27
			c20.4,0,37-16.6,37-37C512,235.6,495.4,219,475,219z M475,273c-9.4,0-17-7.6-17-17s7.6-17,17-17s17,7.6,17,17S484.4,273,475,273z"
			/>
	</g>
</g>
<g>
	<g>
		<path class="st0" d="M186.6,172.4l-53.1-53.1c3.1-5.5,4.7-11.7,4.7-18.1c0-9.9-3.8-19.2-10.8-26.2c-7-7-16.3-10.8-26.2-10.8
			S82,68,75,75c-14.4,14.4-14.4,37.9,0,52.3c7,7,16.3,10.8,26.2,10.8c6.5,0,12.7-1.7,18.1-4.7l53.1,53.1c2,2,4.5,2.9,7.1,2.9
			s5.1-1,7.1-2.9C190.5,182.6,190.5,176.3,186.6,172.4z M113.2,113.2C113.2,113.2,113.2,113.2,113.2,113.2
			C113.2,113.2,113.2,113.2,113.2,113.2c-3.2,3.2-7.5,5-12,5c-4.5,0-8.8-1.8-12-5c-6.6-6.6-6.6-17.4,0-24c3.2-3.2,7.5-5,12-5
			s8.8,1.8,12,5s5,7.5,5,12C118.1,105.7,116.4,109.9,113.2,113.2z"/>
	</g>
</g>
<g>
	<g>
		<path class="st0" d="M263.1,152.9c-1.9-1.9-4.4-2.9-7.1-2.9c-2.6,0-5.2,1.1-7.1,2.9c-1.9,1.9-2.9,4.4-2.9,7.1s1.1,5.2,2.9,7.1
			c1.9,1.9,4.4,2.9,7.1,2.9s5.2-1.1,7.1-2.9c1.9-1.9,2.9-4.4,2.9-7.1S264.9,154.8,263.1,152.9z"/>
	</g>
</g>
<g>
	<g>
		<path class="st0" d="M437,75c-7-7-16.3-10.8-26.2-10.8S391.7,68,384.7,75c-7,7-10.8,16.3-10.8,26.2c0,6.5,1.7,12.7,4.7,18.1
			l-60.7,60.7c-3.9,3.9-3.9,10.2,0,14.1c2,2,4.5,2.9,7.1,2.9s5.1-1,7.1-2.9l60.7-60.7c5.5,3.1,11.7,4.7,18.1,4.7
			c9.9,0,19.2-3.8,26.2-10.8C451.4,112.9,451.4,89.4,437,75z M422.9,113.2c-3.2,3.2-7.5,5-12,5c-4.5,0-8.8-1.8-12-5c0,0,0,0,0,0
			c0,0,0,0,0,0c-3.2-3.2-5-7.5-5-12c0-4.5,1.8-8.8,5-12c3.2-3.2,7.5-5,12-5s8.8,1.8,12,5C429.5,95.7,429.5,106.5,422.9,113.2z"/>
	</g>
</g>
<g>
	<g>
		<path class="st0" d="M128,246H72.6c-4.4-15.6-18.7-27-35.6-27c-20.4,0-37,16.6-37,37s16.6,37,37,37c16.9,0,31.2-11.4,35.6-27H128
			c5.5,0,10-4.5,10-10C138,250.5,133.5,246,128,246z M37,273c-9.4,0-17-7.6-17-17s7.6-17,17-17s17,7.6,17,17S46.4,273,37,273z"/>
	</g>
</g>
</svg>
